HIERARCHY
ROOT Hips
{
	OFFSET 0.000000 0.000000 0.000000 
	CHANNELS 6 Xposition Yposition Zposition Zrotation Xrotation Yrotation
	JOINT Spine
	{
		OFFSET -0.000000 8.285670 0.000000 
		CHANNELS 3 Zrotation Xrotation Yrotation
		JOINT Spine1
		{
			OFFSET -0.000000 20.280901 0.000000 
			CHANNELS 3 Zrotation Xrotation Yrotation
			JOINT Neck
			{
				OFFSET -0.000000 22.301800 0.000000 
				CHANNELS 3 Zrotation Xrotation Yrotation
				JOINT Head
				{
					OFFSET -0.000000 15.661900 2.020890 
					CHANNELS 3 Zrotation Xrotation Yrotation
					End Site
					{
						OFFSET -0.000000 20.208887 0.000000 
					}
				}
			}
			JOINT LeftShoulder
			{
				OFFSET 3.887530 15.503099 -0.416373 
				CHANNELS 3 Zrotation Xrotation Yrotation
				JOINT LeftArm
				{
					OFFSET 20.767099 0.000000 0.000000 
					CHANNELS 3 Zrotation Xrotation Yrotation
					JOINT LeftForeArm
					{
						OFFSET 26.608500 0.000000 0.000000 
						CHANNELS 3 Zrotation Xrotation Yrotation
						JOINT LeftHand
						{
							OFFSET 25.563202 0.000000 0.000000 
							CHANNELS 3 Zrotation Xrotation Yrotation
							End Site
							{
								OFFSET 15.156667 0.000000 0.000000 
							}
						}
					}
				}
			}
			JOINT RightShoulder
			{
				OFFSET -4.190880 15.503099 -0.416373 
				CHANNELS 3 Zrotation Xrotation Yrotation
				JOINT RightArm
				{
					OFFSET -20.767099 0.000000 0.000000 
					CHANNELS 3 Zrotation Xrotation Yrotation
					JOINT RightForeArm
					{
						OFFSET -26.608500 0.000000 0.000000 
						CHANNELS 3 Zrotation Xrotation Yrotation
						JOINT RightHand
						{
							OFFSET -25.563202 0.000000 0.000000 
							CHANNELS 3 Zrotation Xrotation Yrotation
							End Site
							{
								OFFSET -15.156667 0.000000 0.000000 
							}
						}
					}
				}
			}
		}
	}
	JOINT LeftUpLeg
	{
		OFFSET 10.104500 0.000000 0.000000 
		CHANNELS 3 Zrotation Xrotation Yrotation
		JOINT LeftLeg
		{
			OFFSET -0.000000 -50.743301 0.000000 
			CHANNELS 3 Zrotation Xrotation Yrotation
			JOINT LeftFoot
			{
				OFFSET -0.000000 -35.579197 0.000000 
				CHANNELS 3 Zrotation Xrotation Yrotation
				JOINT LeftToeBase
				{
					OFFSET -0.000000 -6.567910 15.156700 
					CHANNELS 3 Zrotation Xrotation Yrotation
					End Site
					{
						OFFSET -0.000000 0.000000 4.041778 
					}
				}
			}
		}
	}
	JOINT RightUpLeg
	{
		OFFSET -10.104500 0.000000 0.000000 
		CHANNELS 3 Zrotation Xrotation Yrotation
		JOINT RightLeg
		{
			OFFSET -0.000000 -50.743301 0.000000 
			CHANNELS 3 Zrotation Xrotation Yrotation
			JOINT RightFoot
			{
				OFFSET -0.000000 -35.579197 0.000000 
				CHANNELS 3 Zrotation Xrotation Yrotation
				JOINT RightToeBase
				{
					OFFSET -0.000000 -6.567910 15.156700 
					CHANNELS 3 Zrotation Xrotation Yrotation
					End Site
					{
						OFFSET -0.000000 0.000000 4.041778 
					}
				}
			}
		}
	}
}
MOTION
Frames: 6
Frame Time: 0.010000
-8.286299 91.969231 -57.203716 -3.781077 3.363927 8.493375 3.589859 -7.551704 -2.442029 4.069456 5.884888 -1.101232 -7.471546 -1.259854 -2.077756 3.102561 7.722164 -3.663962 -7.920849 6.559277 1.559921 -76.960663 25.173796 -13.818340 7.009115 5.389814 -9.845895 -26.044765 3.999173 8.629392 -14.322703 3.501380 -3.223505 78.974594 36.596069 20.641718 1.101135 2.580007 -0.659503 26.081207 0.385043 -9.485074 12.083258 -19.350187 -6.708240 -13.388773 54.327290 -4.982830 11.697371 -32.809280 6.229892 0.000000 0.000000 0.000000 2.139142 -4.446168 -6.729365 9.402171 12.311805 16.081652 -13.925554 -16.891468 -28.617432 0.000000 0.000000 0.000000 
-8.242959 91.992218 -57.573261 -3.841457 3.475508 8.703932 3.697816 -7.614239 -2.551153 3.698454 5.860206 -1.120619 -6.920548 -1.408121 -2.145174 2.834413 7.767148 -3.605793 -7.506038 6.516592 1.623623 -77.149071 25.151100 -13.835680 6.900659 5.482533 -9.631021 -26.000395 4.069579 8.645132 -13.976169 3.428460 -3.203942 78.823532 36.621555 20.644293 1.089806 2.541135 -0.634013 26.122385 0.343531 -9.479383 12.037553 -19.048515 -6.866922 -13.133182 54.006016 -6.112226 12.320170 -32.665543 7.235625 0.000000 0.000000 0.000000 2.105466 -4.738747 -6.754743 9.433881 12.235620 16.001553 -13.941557 -16.683956 -28.651672 0.000000 0.000000 0.000000 
-8.192705 92.013184 -57.942440 -3.903388 3.585350 8.910583 3.788111 -7.670846 -2.663693 3.371857 5.829415 -1.143071 -6.407933 -1.547812 -2.206154 2.579299 7.802946 -3.549684 -7.121801 6.473536 1.677240 -77.326859 25.130789 -13.851400 6.794734 5.566395 -9.433459 -25.952862 4.133555 8.658621 -13.656053 3.358957 -3.187054 78.674080 36.642456 20.653717 1.077990 2.503134 -0.608644 26.160225 0.303948 -9.470651 11.989437 -18.745531 -7.025898 -12.871413 53.671947 -7.228250 12.928202 -32.511261 8.222198 0.000000 0.000000 0.000000 2.067174 -5.034050 -6.782991 9.463507 12.174335 15.922482 -13.956760 -16.487337 -28.684343 0.000000 0.000000 0.000000 
-8.135617 92.032120 -58.311501 -3.966877 3.693219 9.113420 3.861638 -7.721384 -2.779414 3.087346 5.792946 -1.168281 -5.931747 -1.678953 -2.261100 2.337024 7.829585 -3.495625 -6.766395 6.430069 1.721165 -77.494408 25.113050 -13.866076 6.691403 5.641829 -9.253312 -25.901943 4.191497 8.669798 -13.360539 3.293193 -3.172597 78.525650 36.659042 20.670271 1.065274 2.465784 -0.583648 26.194845 0.266036 -9.458698 11.938808 -18.441633 -7.184469 -12.603328 53.325737 -8.329702 13.520422 -32.347290 9.188005 0.000000 0.000000 0.000000 2.024214 -5.332022 -6.813759 9.491262 12.128398 15.844784 -13.971512 -16.301517 -28.716005 0.000000 0.000000 0.000000 
-8.071795 92.049065 -58.680786 -4.031805 3.798822 9.311521 3.919267 -7.765716 -2.897857 2.842657 5.751213 -1.196088 -5.489074 -1.801623 -2.310588 2.105760 7.847066 -3.443253 -6.438193 6.385980 1.755795 -77.651894 25.097738 -13.879988 6.590505 5.709375 -9.091149 -25.847509 4.243896 8.678925 -13.088487 3.230410 -3.160437 78.378975 36.670929 20.692814 1.051980 2.429276 -0.558983 26.226070 0.229966 -9.443833 11.885573 -18.137220 -7.341783 -12.328663 52.967983 -9.414993 14.095537 -32.174747 10.130942 0.000000 0.000000 0.000000 1.969899 -5.678148 -6.850375 9.517150 12.098328 15.768264 -13.973827 -16.032368 -28.728857 0.000000 0.000000 0.000000 
-8.001101 92.064026 -59.050362 -4.097978 3.901880 9.505180 3.961786 -7.803647 -3.018685 2.635620 5.704530 -1.226259 -5.078097 -1.916134 -2.354939 1.885222 7.856005 -3.392580 -6.135727 6.341258 1.781462 -77.799355 25.084984 -13.893533 6.491982 5.769477 -8.947094 -25.789450 4.291139 8.685856 -12.837934 3.170974 -3.150330 78.232903 36.678501 20.721718 1.037956 2.393304 -0.534656 26.253939 0.195426 -9.425998 11.829592 -17.832714 -7.497114 -12.047417 52.599529 -10.483291 14.652985 -31.994572 11.050032 0.000000 0.000000 0.000000 1.917026 -5.985681 -6.885914 9.540912 12.084496 15.692828 -13.986348 -15.858976 -28.756462 0.000000 0.000000 0.000000 
